<?xml version="1.0" encoding="utf-8" ?>
<svg baseProfile="tiny" height="1215.2" version="1.2" viewBox="0 0 1256.0 1215.2" width="1256.0" xmlns="http://www.w3.org/2000/svg" xmlns:ev="http://www.w3.org/2001/xml-events" xmlns:xlink="http://www.w3.org/1999/xlink"><defs /><g transform="translate(100,100) "><g id="CNRATR_NCH_12C12F0"><rect fill="green" fill-opacity="0.6" height="36.0" stroke="green" stroke-width="0.1" width="576.0" x="208.0" y="25.2" /><rect fill="green" fill-opacity="0.6" height="432.0" stroke="green" stroke-width="0.1" width="576.0" x="208.0" y="61.2" /><rect fill="green" fill-opacity="0.6" height="36.0" stroke="green" stroke-width="0.1" width="576.0" x="208.0" y="493.2" /><rect fill="green" fill-opacity="0.6" height="432.0" stroke="green" stroke-width="0.1" width="576.0" x="208.0" y="529.2" /><rect fill="green" fill-opacity="0.6" height="36.0" stroke="green" stroke-width="0.1" width="576.0" x="208.0" y="961.2" /><rect fill="green" fill-opacity="0.6" height="36.0" stroke="green" stroke-width="0.1" width="576.0" x="208.0" y="25.2" /><rect fill="green" fill-opacity="0.6" height="432.0" stroke="green" stroke-width="0.1" width="576.0" x="208.0" y="61.2" /><rect fill="green" fill-opacity="0.6" height="36.0" stroke="green" stroke-width="0.1" width="576.0" x="208.0" y="493.2" /><rect fill="green" fill-opacity="0.6" height="432.0" stroke="green" stroke-width="0.1" width="576.0" x="208.0" y="529.2" /><rect fill="green" fill-opacity="0.6" height="36.0" stroke="green" stroke-width="0.1" width="576.0" x="208.0" y="961.2" /><rect fill="green" fill-opacity="0.6" height="43.2" stroke="green" stroke-width="0.1" width="96.0" x="-48.0" y="-18.0" /><rect fill="green" fill-opacity="0.6" height="43.2" stroke="green" stroke-width="0.1" width="96.0" x="1008.0" y="-18.0" /><rect fill="green" fill-opacity="0.6" height="36.0" stroke="green" stroke-width="0.1" width="96.0" x="-48.0" y="25.2" /><rect fill="green" fill-opacity="0.6" height="36.0" stroke="green" stroke-width="0.1" width="96.0" x="1008.0" y="25.2" /><rect fill="green" fill-opacity="0.6" height="432.0" stroke="green" stroke-width="0.1" width="96.0" x="-48.0" y="61.2" /><rect fill="green" fill-opacity="0.6" height="432.0" stroke="green" stroke-width="0.1" width="96.0" x="1008.0" y="61.2" /><rect fill="green" fill-opacity="0.6" height="36.0" stroke="green" stroke-width="0.1" width="96.0" x="-48.0" y="493.2" /><rect fill="green" fill-opacity="0.6" height="36.0" stroke="green" stroke-width="0.1" width="96.0" x="1008.0" y="493.2" /><rect fill="green" fill-opacity="0.6" height="432.0" stroke="green" stroke-width="0.1" width="96.0" x="-48.0" y="529.2" /><rect fill="green" fill-opacity="0.6" height="432.0" stroke="green" stroke-width="0.1" width="96.0" x="1008.0" y="529.2" /><rect fill="green" fill-opacity="0.6" height="36.0" stroke="green" stroke-width="0.1" width="96.0" x="-48.0" y="961.2" /><rect fill="green" fill-opacity="0.6" height="36.0" stroke="green" stroke-width="0.1" width="96.0" x="1008.0" y="961.2" /><rect fill="green" fill-opacity="0.6" height="43.2" stroke="green" stroke-width="0.1" width="96.0" x="-48.0" y="997.2" /><rect fill="green" fill-opacity="0.6" height="43.2" stroke="green" stroke-width="0.1" width="96.0" x="1008.0" y="997.2" /><rect fill="red" fill-opacity="0.6" height="25.2" stroke="red" stroke-width="0.1" width="736.0" x="176.0" y="-9.0" /><rect fill="red" fill-opacity="0.6" height="414.0" stroke="red" stroke-width="0.1" width="736.0" x="176.0" y="70.2" /><rect fill="red" fill-opacity="0.6" height="414.0" stroke="red" stroke-width="0.1" width="736.0" x="176.0" y="538.2" /><rect fill="red" fill-opacity="0.6" height="25.2" stroke="red" stroke-width="0.1" width="736.0" x="176.0" y="1006.2" /><rect fill="yellow" fill-opacity="0.6" height="108.0" stroke="yellow" stroke-width="0.1" width="21.32" x="885.33" y="169.2" /><rect fill="yellow" fill-opacity="0.6" height="108.0" stroke="yellow" stroke-width="0.1" width="21.32" x="885.33" y="277.2" /><rect fill="yellow" fill-opacity="0.6" height="108.0" stroke="yellow" stroke-width="0.1" width="21.32" x="885.33" y="385.2" /><rect fill="yellow" fill-opacity="0.6" height="9.0" stroke="yellow" stroke-width="0.1" width="21.32" x="885.33" y="493.2" /><rect fill="yellow" fill-opacity="0.6" height="9.0" stroke="yellow" stroke-width="0.1" width="21.32" x="885.33" y="502.2" /><rect fill="yellow" fill-opacity="0.6" height="9.0" stroke="yellow" stroke-width="0.1" width="21.32" x="885.33" y="511.2" /><rect fill="yellow" fill-opacity="0.6" height="9.0" stroke="yellow" stroke-width="0.1" width="21.32" x="885.33" y="520.2" /><rect fill="yellow" fill-opacity="0.6" height="108.0" stroke="yellow" stroke-width="0.1" width="21.32" x="885.33" y="529.2" /><rect fill="yellow" fill-opacity="0.6" height="108.0" stroke="yellow" stroke-width="0.1" width="21.32" x="885.33" y="637.2" /><rect fill="yellow" fill-opacity="0.6" height="108.0" stroke="yellow" stroke-width="0.1" width="21.32" x="885.33" y="745.2" /><rect fill="blue" fill-opacity="0.6" height="43.2" stroke="blue" stroke-width="0.1" width="96.0" x="-48.0" y="-18.0" /><rect fill="blue" fill-opacity="0.6" height="43.2" stroke="blue" stroke-width="0.1" width="96.0" x="1008.0" y="-18.0" /><rect fill="blue" fill-opacity="0.6" height="36.0" stroke="blue" stroke-width="0.1" width="96.0" x="-48.0" y="25.2" /><rect fill="blue" fill-opacity="0.6" height="36.0" stroke="blue" stroke-width="0.1" width="640.0" x="144.0" y="25.2" /><rect fill="blue" fill-opacity="0.6" height="36.0" stroke="blue" stroke-width="0.1" width="96.0" x="1008.0" y="25.2" /><rect fill="blue" fill-opacity="0.6" height="432.0" stroke="blue" stroke-width="0.1" width="96.0" x="-48.0" y="61.2" /><rect fill="blue" fill-opacity="0.6" height="432.0" stroke="blue" stroke-width="0.1" width="32.0" x="144.0" y="61.2" /><rect fill="blue" fill-opacity="0.6" height="432.0" stroke="blue" stroke-width="0.1" width="32.0" x="880.0" y="61.2" /><rect fill="blue" fill-opacity="0.6" height="432.0" stroke="blue" stroke-width="0.1" width="96.0" x="1008.0" y="61.2" /><rect fill="blue" fill-opacity="0.6" height="36.0" stroke="blue" stroke-width="0.1" width="96.0" x="-48.0" y="493.2" /><rect fill="blue" fill-opacity="0.6" height="36.0" stroke="blue" stroke-width="0.1" width="32.0" x="144.0" y="493.2" /><rect fill="blue" fill-opacity="0.6" height="36.0" stroke="blue" stroke-width="0.1" width="576.0" x="208.0" y="493.2" /><rect fill="blue" fill-opacity="0.6" height="36.0" stroke="blue" stroke-width="0.1" width="32.0" x="880.0" y="493.2" /><rect fill="blue" fill-opacity="0.6" height="36.0" stroke="blue" stroke-width="0.1" width="96.0" x="1008.0" y="493.2" /><rect fill="blue" fill-opacity="0.6" height="432.0" stroke="blue" stroke-width="0.1" width="96.0" x="-48.0" y="529.2" /><rect fill="blue" fill-opacity="0.6" height="432.0" stroke="blue" stroke-width="0.1" width="32.0" x="144.0" y="529.2" /><rect fill="blue" fill-opacity="0.6" height="432.0" stroke="blue" stroke-width="0.1" width="32.0" x="880.0" y="529.2" /><rect fill="blue" fill-opacity="0.6" height="432.0" stroke="blue" stroke-width="0.1" width="96.0" x="1008.0" y="529.2" /><rect fill="blue" fill-opacity="0.6" height="36.0" stroke="blue" stroke-width="0.1" width="96.0" x="-48.0" y="961.2" /><rect fill="blue" fill-opacity="0.6" height="36.0" stroke="blue" stroke-width="0.1" width="640.0" x="144.0" y="961.2" /><rect fill="blue" fill-opacity="0.6" height="36.0" stroke="blue" stroke-width="0.1" width="96.0" x="1008.0" y="961.2" /><rect fill="blue" fill-opacity="0.6" height="43.2" stroke="blue" stroke-width="0.1" width="96.0" x="-48.0" y="997.2" /><rect fill="blue" fill-opacity="0.6" height="43.2" stroke="blue" stroke-width="0.1" width="96.0" x="1008.0" y="997.2" /><rect fill="yellow" fill-opacity="0.6" height="36.0" stroke="yellow" stroke-width="0.1" width="32.0" x="-16.0" y="25.2" /><rect fill="yellow" fill-opacity="0.6" height="36.0" stroke="yellow" stroke-width="0.1" width="32.0" x="1040.0" y="25.2" /><rect fill="yellow" fill-opacity="0.6" height="432.0" stroke="yellow" stroke-width="0.1" width="32.0" x="-16.0" y="61.2" /><rect fill="yellow" fill-opacity="0.6" height="432.0" stroke="yellow" stroke-width="0.1" width="32.0" x="1040.0" y="61.2" /><rect fill="yellow" fill-opacity="0.6" height="36.0" stroke="yellow" stroke-width="0.1" width="32.0" x="-16.0" y="493.2" /><rect fill="yellow" fill-opacity="0.6" height="36.0" stroke="yellow" stroke-width="0.1" width="32.0" x="1040.0" y="493.2" /><rect fill="yellow" fill-opacity="0.6" height="432.0" stroke="yellow" stroke-width="0.1" width="32.0" x="-16.0" y="529.2" /><rect fill="yellow" fill-opacity="0.6" height="432.0" stroke="yellow" stroke-width="0.1" width="32.0" x="1040.0" y="529.2" /><rect fill="yellow" fill-opacity="0.6" height="36.0" stroke="yellow" stroke-width="0.1" width="32.0" x="-16.0" y="961.2" /><rect fill="yellow" fill-opacity="0.6" height="36.0" stroke="yellow" stroke-width="0.1" width="32.0" x="1040.0" y="961.2" /><rect fill="yellow" fill-opacity="0.6" height="9.0" stroke="yellow" stroke-width="0.1" width="16.0" x="224.0" y="34.2" /><rect fill="yellow" fill-opacity="0.6" height="9.0" stroke="yellow" stroke-width="0.1" width="16.0" x="224.0" y="43.2" /><rect fill="yellow" fill-opacity="0.6" height="9.0" stroke="yellow" stroke-width="0.1" width="32.0" x="240.0" y="34.2" /><rect fill="yellow" fill-opacity="0.6" height="9.0" stroke="yellow" stroke-width="0.1" width="32.0" x="240.0" y="43.2" /><rect fill="yellow" fill-opacity="0.6" height="9.0" stroke="yellow" stroke-width="0.1" width="16.0" x="272.0" y="34.2" /><rect fill="yellow" fill-opacity="0.6" height="9.0" stroke="yellow" stroke-width="0.1" width="16.0" x="272.0" y="43.2" /><rect fill="yellow" fill-opacity="0.6" height="9.0" stroke="yellow" stroke-width="0.1" width="16.0" x="320.0" y="34.2" /><rect fill="yellow" fill-opacity="0.6" height="9.0" stroke="yellow" stroke-width="0.1" width="16.0" x="320.0" y="43.2" /><rect fill="yellow" fill-opacity="0.6" height="9.0" stroke="yellow" stroke-width="0.1" width="32.0" x="336.0" y="34.2" /><rect fill="yellow" fill-opacity="0.6" height="9.0" stroke="yellow" stroke-width="0.1" width="32.0" x="336.0" y="43.2" /><rect fill="yellow" fill-opacity="0.6" height="9.0" stroke="yellow" stroke-width="0.1" width="16.0" x="368.0" y="34.2" /><rect fill="yellow" fill-opacity="0.6" height="9.0" stroke="yellow" stroke-width="0.1" width="16.0" x="368.0" y="43.2" /><rect fill="yellow" fill-opacity="0.6" height="9.0" stroke="yellow" stroke-width="0.1" width="16.0" x="416.0" y="34.2" /><rect fill="yellow" fill-opacity="0.6" height="9.0" stroke="yellow" stroke-width="0.1" width="16.0" x="416.0" y="43.2" /><rect fill="yellow" fill-opacity="0.6" height="9.0" stroke="yellow" stroke-width="0.1" width="32.0" x="432.0" y="34.2" /><rect fill="yellow" fill-opacity="0.6" height="9.0" stroke="yellow" stroke-width="0.1" width="32.0" x="432.0" y="43.2" /><rect fill="yellow" fill-opacity="0.6" height="9.0" stroke="yellow" stroke-width="0.1" width="16.0" x="464.0" y="34.2" /><rect fill="yellow" fill-opacity="0.6" height="9.0" stroke="yellow" stroke-width="0.1" width="16.0" x="464.0" y="43.2" /><rect fill="yellow" fill-opacity="0.6" height="9.0" stroke="yellow" stroke-width="0.1" width="16.0" x="512.0" y="34.2" /><rect fill="yellow" fill-opacity="0.6" height="9.0" stroke="yellow" stroke-width="0.1" width="16.0" x="512.0" y="43.2" /><rect fill="yellow" fill-opacity="0.6" height="9.0" stroke="yellow" stroke-width="0.1" width="32.0" x="528.0" y="34.2" /><rect fill="yellow" fill-opacity="0.6" height="9.0" stroke="yellow" stroke-width="0.1" width="32.0" x="528.0" y="43.2" /><rect fill="yellow" fill-opacity="0.6" height="9.0" stroke="yellow" stroke-width="0.1" width="16.0" x="560.0" y="34.2" /><rect fill="yellow" fill-opacity="0.6" height="9.0" stroke="yellow" stroke-width="0.1" width="16.0" x="560.0" y="43.2" /><rect fill="yellow" fill-opacity="0.6" height="9.0" stroke="yellow" stroke-width="0.1" width="16.0" x="608.0" y="34.2" /><rect fill="yellow" fill-opacity="0.6" height="9.0" stroke="yellow" stroke-width="0.1" width="16.0" x="608.0" y="43.2" /><rect fill="yellow" fill-opacity="0.6" height="9.0" stroke="yellow" stroke-width="0.1" width="32.0" x="624.0" y="34.2" /><rect fill="yellow" fill-opacity="0.6" height="9.0" stroke="yellow" stroke-width="0.1" width="32.0" x="624.0" y="43.2" /><rect fill="yellow" fill-opacity="0.6" height="9.0" stroke="yellow" stroke-width="0.1" width="16.0" x="656.0" y="34.2" /><rect fill="yellow" fill-opacity="0.6" height="9.0" stroke="yellow" stroke-width="0.1" width="16.0" x="656.0" y="43.2" /><rect fill="yellow" fill-opacity="0.6" height="9.0" stroke="yellow" stroke-width="0.1" width="16.0" x="704.0" y="34.2" /><rect fill="yellow" fill-opacity="0.6" height="9.0" stroke="yellow" stroke-width="0.1" width="16.0" x="704.0" y="43.2" /><rect fill="yellow" fill-opacity="0.6" height="9.0" stroke="yellow" stroke-width="0.1" width="32.0" x="720.0" y="34.2" /><rect fill="yellow" fill-opacity="0.6" height="9.0" stroke="yellow" stroke-width="0.1" width="32.0" x="720.0" y="43.2" /><rect fill="yellow" fill-opacity="0.6" height="9.0" stroke="yellow" stroke-width="0.1" width="16.0" x="752.0" y="34.2" /><rect fill="yellow" fill-opacity="0.6" height="9.0" stroke="yellow" stroke-width="0.1" width="16.0" x="752.0" y="43.2" /><rect fill="yellow" fill-opacity="0.6" height="9.0" stroke="yellow" stroke-width="0.1" width="16.0" x="224.0" y="502.2" /><rect fill="yellow" fill-opacity="0.6" height="9.0" stroke="yellow" stroke-width="0.1" width="16.0" x="224.0" y="511.2" /><rect fill="yellow" fill-opacity="0.6" height="9.0" stroke="yellow" stroke-width="0.1" width="32.0" x="240.0" y="502.2" /><rect fill="yellow" fill-opacity="0.6" height="9.0" stroke="yellow" stroke-width="0.1" width="32.0" x="240.0" y="511.2" /><rect fill="yellow" fill-opacity="0.6" height="9.0" stroke="yellow" stroke-width="0.1" width="16.0" x="272.0" y="502.2" /><rect fill="yellow" fill-opacity="0.6" height="9.0" stroke="yellow" stroke-width="0.1" width="16.0" x="272.0" y="511.2" /><rect fill="yellow" fill-opacity="0.6" height="9.0" stroke="yellow" stroke-width="0.1" width="16.0" x="320.0" y="502.2" /><rect fill="yellow" fill-opacity="0.6" height="9.0" stroke="yellow" stroke-width="0.1" width="16.0" x="320.0" y="511.2" /><rect fill="yellow" fill-opacity="0.6" height="9.0" stroke="yellow" stroke-width="0.1" width="32.0" x="336.0" y="502.2" /><rect fill="yellow" fill-opacity="0.6" height="9.0" stroke="yellow" stroke-width="0.1" width="32.0" x="336.0" y="511.2" /><rect fill="yellow" fill-opacity="0.6" height="9.0" stroke="yellow" stroke-width="0.1" width="16.0" x="368.0" y="502.2" /><rect fill="yellow" fill-opacity="0.6" height="9.0" stroke="yellow" stroke-width="0.1" width="16.0" x="368.0" y="511.2" /><rect fill="yellow" fill-opacity="0.6" height="9.0" stroke="yellow" stroke-width="0.1" width="16.0" x="416.0" y="502.2" /><rect fill="yellow" fill-opacity="0.6" height="9.0" stroke="yellow" stroke-width="0.1" width="16.0" x="416.0" y="511.2" /><rect fill="yellow" fill-opacity="0.6" height="9.0" stroke="yellow" stroke-width="0.1" width="32.0" x="432.0" y="502.2" /><rect fill="yellow" fill-opacity="0.6" height="9.0" stroke="yellow" stroke-width="0.1" width="32.0" x="432.0" y="511.2" /><rect fill="yellow" fill-opacity="0.6" height="9.0" stroke="yellow" stroke-width="0.1" width="16.0" x="464.0" y="502.2" /><rect fill="yellow" fill-opacity="0.6" height="9.0" stroke="yellow" stroke-width="0.1" width="16.0" x="464.0" y="511.2" /><rect fill="yellow" fill-opacity="0.6" height="9.0" stroke="yellow" stroke-width="0.1" width="16.0" x="512.0" y="502.2" /><rect fill="yellow" fill-opacity="0.6" height="9.0" stroke="yellow" stroke-width="0.1" width="16.0" x="512.0" y="511.2" /><rect fill="yellow" fill-opacity="0.6" height="9.0" stroke="yellow" stroke-width="0.1" width="32.0" x="528.0" y="502.2" /><rect fill="yellow" fill-opacity="0.6" height="9.0" stroke="yellow" stroke-width="0.1" width="32.0" x="528.0" y="511.2" /><rect fill="yellow" fill-opacity="0.6" height="9.0" stroke="yellow" stroke-width="0.1" width="16.0" x="560.0" y="502.2" /><rect fill="yellow" fill-opacity="0.6" height="9.0" stroke="yellow" stroke-width="0.1" width="16.0" x="560.0" y="511.2" /><rect fill="yellow" fill-opacity="0.6" height="9.0" stroke="yellow" stroke-width="0.1" width="16.0" x="608.0" y="502.2" /><rect fill="yellow" fill-opacity="0.6" height="9.0" stroke="yellow" stroke-width="0.1" width="16.0" x="608.0" y="511.2" /><rect fill="yellow" fill-opacity="0.6" height="9.0" stroke="yellow" stroke-width="0.1" width="32.0" x="624.0" y="502.2" /><rect fill="yellow" fill-opacity="0.6" height="9.0" stroke="yellow" stroke-width="0.1" width="32.0" x="624.0" y="511.2" /><rect fill="yellow" fill-opacity="0.6" height="9.0" stroke="yellow" stroke-width="0.1" width="16.0" x="656.0" y="502.2" /><rect fill="yellow" fill-opacity="0.6" height="9.0" stroke="yellow" stroke-width="0.1" width="16.0" x="656.0" y="511.2" /><rect fill="yellow" fill-opacity="0.6" height="9.0" stroke="yellow" stroke-width="0.1" width="16.0" x="704.0" y="502.2" /><rect fill="yellow" fill-opacity="0.6" height="9.0" stroke="yellow" stroke-width="0.1" width="16.0" x="704.0" y="511.2" /><rect fill="yellow" fill-opacity="0.6" height="9.0" stroke="yellow" stroke-width="0.1" width="32.0" x="720.0" y="502.2" /><rect fill="yellow" fill-opacity="0.6" height="9.0" stroke="yellow" stroke-width="0.1" width="32.0" x="720.0" y="511.2" /><rect fill="yellow" fill-opacity="0.6" height="9.0" stroke="yellow" stroke-width="0.1" width="16.0" x="752.0" y="502.2" /><rect fill="yellow" fill-opacity="0.6" height="9.0" stroke="yellow" stroke-width="0.1" width="16.0" x="752.0" y="511.2" /><rect fill="yellow" fill-opacity="0.6" height="9.0" stroke="yellow" stroke-width="0.1" width="16.0" x="224.0" y="970.2" /><rect fill="yellow" fill-opacity="0.6" height="9.0" stroke="yellow" stroke-width="0.1" width="16.0" x="224.0" y="979.2" /><rect fill="yellow" fill-opacity="0.6" height="9.0" stroke="yellow" stroke-width="0.1" width="32.0" x="240.0" y="970.2" /><rect fill="yellow" fill-opacity="0.6" height="9.0" stroke="yellow" stroke-width="0.1" width="32.0" x="240.0" y="979.2" /><rect fill="yellow" fill-opacity="0.6" height="9.0" stroke="yellow" stroke-width="0.1" width="16.0" x="272.0" y="970.2" /><rect fill="yellow" fill-opacity="0.6" height="9.0" stroke="yellow" stroke-width="0.1" width="16.0" x="272.0" y="979.2" /><rect fill="yellow" fill-opacity="0.6" height="9.0" stroke="yellow" stroke-width="0.1" width="16.0" x="320.0" y="970.2" /><rect fill="yellow" fill-opacity="0.6" height="9.0" stroke="yellow" stroke-width="0.1" width="16.0" x="320.0" y="979.2" /><rect fill="yellow" fill-opacity="0.6" height="9.0" stroke="yellow" stroke-width="0.1" width="32.0" x="336.0" y="970.2" /><rect fill="yellow" fill-opacity="0.6" height="9.0" stroke="yellow" stroke-width="0.1" width="32.0" x="336.0" y="979.2" /><rect fill="yellow" fill-opacity="0.6" height="9.0" stroke="yellow" stroke-width="0.1" width="16.0" x="368.0" y="970.2" /><rect fill="yellow" fill-opacity="0.6" height="9.0" stroke="yellow" stroke-width="0.1" width="16.0" x="368.0" y="979.2" /><rect fill="yellow" fill-opacity="0.6" height="9.0" stroke="yellow" stroke-width="0.1" width="16.0" x="416.0" y="970.2" /><rect fill="yellow" fill-opacity="0.6" height="9.0" stroke="yellow" stroke-width="0.1" width="16.0" x="416.0" y="979.2" /><rect fill="yellow" fill-opacity="0.6" height="9.0" stroke="yellow" stroke-width="0.1" width="32.0" x="432.0" y="970.2" /><rect fill="yellow" fill-opacity="0.6" height="9.0" stroke="yellow" stroke-width="0.1" width="32.0" x="432.0" y="979.2" /><rect fill="yellow" fill-opacity="0.6" height="9.0" stroke="yellow" stroke-width="0.1" width="16.0" x="464.0" y="970.2" /><rect fill="yellow" fill-opacity="0.6" height="9.0" stroke="yellow" stroke-width="0.1" width="16.0" x="464.0" y="979.2" /><rect fill="yellow" fill-opacity="0.6" height="9.0" stroke="yellow" stroke-width="0.1" width="16.0" x="512.0" y="970.2" /><rect fill="yellow" fill-opacity="0.6" height="9.0" stroke="yellow" stroke-width="0.1" width="16.0" x="512.0" y="979.2" /><rect fill="yellow" fill-opacity="0.6" height="9.0" stroke="yellow" stroke-width="0.1" width="32.0" x="528.0" y="970.2" /><rect fill="yellow" fill-opacity="0.6" height="9.0" stroke="yellow" stroke-width="0.1" width="32.0" x="528.0" y="979.2" /><rect fill="yellow" fill-opacity="0.6" height="9.0" stroke="yellow" stroke-width="0.1" width="16.0" x="560.0" y="970.2" /><rect fill="yellow" fill-opacity="0.6" height="9.0" stroke="yellow" stroke-width="0.1" width="16.0" x="560.0" y="979.2" /><rect fill="yellow" fill-opacity="0.6" height="9.0" stroke="yellow" stroke-width="0.1" width="16.0" x="608.0" y="970.2" /><rect fill="yellow" fill-opacity="0.6" height="9.0" stroke="yellow" stroke-width="0.1" width="16.0" x="608.0" y="979.2" /><rect fill="yellow" fill-opacity="0.6" height="9.0" stroke="yellow" stroke-width="0.1" width="32.0" x="624.0" y="970.2" /><rect fill="yellow" fill-opacity="0.6" height="9.0" stroke="yellow" stroke-width="0.1" width="32.0" x="624.0" y="979.2" /><rect fill="yellow" fill-opacity="0.6" height="9.0" stroke="yellow" stroke-width="0.1" width="16.0" x="656.0" y="970.2" /><rect fill="yellow" fill-opacity="0.6" height="9.0" stroke="yellow" stroke-width="0.1" width="16.0" x="656.0" y="979.2" /><rect fill="yellow" fill-opacity="0.6" height="9.0" stroke="yellow" stroke-width="0.1" width="16.0" x="704.0" y="970.2" /><rect fill="yellow" fill-opacity="0.6" height="9.0" stroke="yellow" stroke-width="0.1" width="16.0" x="704.0" y="979.2" /><rect fill="yellow" fill-opacity="0.6" height="9.0" stroke="yellow" stroke-width="0.1" width="32.0" x="720.0" y="970.2" /><rect fill="yellow" fill-opacity="0.6" height="9.0" stroke="yellow" stroke-width="0.1" width="32.0" x="720.0" y="979.2" /><rect fill="yellow" fill-opacity="0.6" height="9.0" stroke="yellow" stroke-width="0.1" width="16.0" x="752.0" y="970.2" /><rect fill="yellow" fill-opacity="0.6" height="9.0" stroke="yellow" stroke-width="0.1" width="16.0" x="752.0" y="979.2" /></g></g></svg>