<?xml version="1.0" encoding="utf-8" ?>
<svg baseProfile="tiny" height="437.6" version="1.2" viewBox="0 0 776.0 437.6" width="776.0" xmlns="http://www.w3.org/2000/svg" xmlns:ev="http://www.w3.org/2001/xml-events" xmlns:xlink="http://www.w3.org/1999/xlink"><defs /><g transform="translate(100,100) "><g id="CNRATR_PCH_2C1F2"><rect fill="green" fill-opacity="0.6" height="36.0" stroke="green" stroke-width="0.1" width="96.0" x="208.0" y="25.2" /><rect fill="green" fill-opacity="0.6" height="43.2" stroke="green" stroke-width="0.1" width="96.0" x="208.0" y="61.2" /><rect fill="green" fill-opacity="0.6" height="36.0" stroke="green" stroke-width="0.1" width="96.0" x="208.0" y="104.4" /><rect fill="green" fill-opacity="0.6" height="43.2" stroke="green" stroke-width="0.1" width="96.0" x="208.0" y="140.4" /><rect fill="green" fill-opacity="0.6" height="36.0" stroke="green" stroke-width="0.1" width="96.0" x="208.0" y="183.6" /><rect fill="green" fill-opacity="0.6" height="36.0" stroke="green" stroke-width="0.1" width="96.0" x="208.0" y="25.2" /><rect fill="green" fill-opacity="0.6" height="43.2" stroke="green" stroke-width="0.1" width="96.0" x="208.0" y="61.2" /><rect fill="green" fill-opacity="0.6" height="36.0" stroke="green" stroke-width="0.1" width="96.0" x="208.0" y="104.4" /><rect fill="green" fill-opacity="0.6" height="43.2" stroke="green" stroke-width="0.1" width="96.0" x="208.0" y="140.4" /><rect fill="green" fill-opacity="0.6" height="36.0" stroke="green" stroke-width="0.1" width="96.0" x="208.0" y="183.6" /><rect fill="green" fill-opacity="0.6" height="43.2" stroke="green" stroke-width="0.1" width="96.0" x="-48.0" y="-18.0" /><rect fill="green" fill-opacity="0.6" height="43.2" stroke="green" stroke-width="0.1" width="96.0" x="528.0" y="-18.0" /><rect fill="green" fill-opacity="0.6" height="36.0" stroke="green" stroke-width="0.1" width="96.0" x="-48.0" y="25.2" /><rect fill="green" fill-opacity="0.6" height="36.0" stroke="green" stroke-width="0.1" width="96.0" x="528.0" y="25.2" /><rect fill="green" fill-opacity="0.6" height="43.2" stroke="green" stroke-width="0.1" width="96.0" x="-48.0" y="61.2" /><rect fill="green" fill-opacity="0.6" height="43.2" stroke="green" stroke-width="0.1" width="96.0" x="528.0" y="61.2" /><rect fill="green" fill-opacity="0.6" height="36.0" stroke="green" stroke-width="0.1" width="96.0" x="-48.0" y="104.4" /><rect fill="green" fill-opacity="0.6" height="36.0" stroke="green" stroke-width="0.1" width="96.0" x="528.0" y="104.4" /><rect fill="green" fill-opacity="0.6" height="43.2" stroke="green" stroke-width="0.1" width="96.0" x="-48.0" y="140.4" /><rect fill="green" fill-opacity="0.6" height="43.2" stroke="green" stroke-width="0.1" width="96.0" x="528.0" y="140.4" /><rect fill="green" fill-opacity="0.6" height="36.0" stroke="green" stroke-width="0.1" width="96.0" x="-48.0" y="183.6" /><rect fill="green" fill-opacity="0.6" height="36.0" stroke="green" stroke-width="0.1" width="96.0" x="528.0" y="183.6" /><rect fill="green" fill-opacity="0.6" height="43.2" stroke="green" stroke-width="0.1" width="96.0" x="-48.0" y="219.6" /><rect fill="green" fill-opacity="0.6" height="43.2" stroke="green" stroke-width="0.1" width="96.0" x="528.0" y="219.6" /><rect fill="red" fill-opacity="0.6" height="25.2" stroke="red" stroke-width="0.1" width="256.0" x="176.0" y="-9.0" /><rect fill="red" fill-opacity="0.6" height="25.2" stroke="red" stroke-width="0.1" width="256.0" x="176.0" y="70.2" /><rect fill="red" fill-opacity="0.6" height="25.2" stroke="red" stroke-width="0.1" width="256.0" x="176.0" y="149.4" /><rect fill="red" fill-opacity="0.6" height="25.2" stroke="red" stroke-width="0.1" width="256.0" x="176.0" y="228.6" /><rect fill="yellow" fill-opacity="0.6" height="10.8" stroke="yellow" stroke-width="0.1" width="21.32" x="405.33" y="72.0" /><rect fill="yellow" fill-opacity="0.6" height="10.8" stroke="yellow" stroke-width="0.1" width="21.32" x="405.33" y="82.8" /><rect fill="yellow" fill-opacity="0.6" height="10.8" stroke="yellow" stroke-width="0.1" width="21.32" x="405.33" y="93.6" /><rect fill="yellow" fill-opacity="0.6" height="9.0" stroke="yellow" stroke-width="0.1" width="21.32" x="405.33" y="104.4" /><rect fill="yellow" fill-opacity="0.6" height="9.0" stroke="yellow" stroke-width="0.1" width="21.32" x="405.33" y="113.4" /><rect fill="yellow" fill-opacity="0.6" height="9.0" stroke="yellow" stroke-width="0.1" width="21.32" x="405.33" y="122.4" /><rect fill="yellow" fill-opacity="0.6" height="9.0" stroke="yellow" stroke-width="0.1" width="21.32" x="405.33" y="131.4" /><rect fill="yellow" fill-opacity="0.6" height="10.8" stroke="yellow" stroke-width="0.1" width="21.32" x="405.33" y="140.4" /><rect fill="yellow" fill-opacity="0.6" height="10.8" stroke="yellow" stroke-width="0.1" width="21.32" x="405.33" y="151.2" /><rect fill="yellow" fill-opacity="0.6" height="10.8" stroke="yellow" stroke-width="0.1" width="21.32" x="405.33" y="162.0" /><rect fill="blue" fill-opacity="0.6" height="43.2" stroke="blue" stroke-width="0.1" width="96.0" x="-48.0" y="-18.0" /><rect fill="blue" fill-opacity="0.6" height="43.2" stroke="blue" stroke-width="0.1" width="96.0" x="528.0" y="-18.0" /><rect fill="blue" fill-opacity="0.6" height="36.0" stroke="blue" stroke-width="0.1" width="96.0" x="-48.0" y="25.2" /><rect fill="blue" fill-opacity="0.6" height="36.0" stroke="blue" stroke-width="0.1" width="160.0" x="144.0" y="25.2" /><rect fill="blue" fill-opacity="0.6" height="36.0" stroke="blue" stroke-width="0.1" width="96.0" x="528.0" y="25.2" /><rect fill="blue" fill-opacity="0.6" height="43.2" stroke="blue" stroke-width="0.1" width="96.0" x="-48.0" y="61.2" /><rect fill="blue" fill-opacity="0.6" height="43.2" stroke="blue" stroke-width="0.1" width="32.0" x="144.0" y="61.2" /><rect fill="blue" fill-opacity="0.6" height="43.2" stroke="blue" stroke-width="0.1" width="32.0" x="400.0" y="61.2" /><rect fill="blue" fill-opacity="0.6" height="43.2" stroke="blue" stroke-width="0.1" width="96.0" x="528.0" y="61.2" /><rect fill="blue" fill-opacity="0.6" height="36.0" stroke="blue" stroke-width="0.1" width="96.0" x="-48.0" y="104.4" /><rect fill="blue" fill-opacity="0.6" height="36.0" stroke="blue" stroke-width="0.1" width="32.0" x="144.0" y="104.4" /><rect fill="blue" fill-opacity="0.6" height="36.0" stroke="blue" stroke-width="0.1" width="96.0" x="208.0" y="104.4" /><rect fill="blue" fill-opacity="0.6" height="36.0" stroke="blue" stroke-width="0.1" width="32.0" x="400.0" y="104.4" /><rect fill="blue" fill-opacity="0.6" height="36.0" stroke="blue" stroke-width="0.1" width="96.0" x="528.0" y="104.4" /><rect fill="blue" fill-opacity="0.6" height="43.2" stroke="blue" stroke-width="0.1" width="96.0" x="-48.0" y="140.4" /><rect fill="blue" fill-opacity="0.6" height="43.2" stroke="blue" stroke-width="0.1" width="32.0" x="144.0" y="140.4" /><rect fill="blue" fill-opacity="0.6" height="43.2" stroke="blue" stroke-width="0.1" width="32.0" x="400.0" y="140.4" /><rect fill="blue" fill-opacity="0.6" height="43.2" stroke="blue" stroke-width="0.1" width="96.0" x="528.0" y="140.4" /><rect fill="blue" fill-opacity="0.6" height="36.0" stroke="blue" stroke-width="0.1" width="96.0" x="-48.0" y="183.6" /><rect fill="blue" fill-opacity="0.6" height="36.0" stroke="blue" stroke-width="0.1" width="160.0" x="144.0" y="183.6" /><rect fill="blue" fill-opacity="0.6" height="36.0" stroke="blue" stroke-width="0.1" width="96.0" x="528.0" y="183.6" /><rect fill="blue" fill-opacity="0.6" height="43.2" stroke="blue" stroke-width="0.1" width="96.0" x="-48.0" y="219.6" /><rect fill="blue" fill-opacity="0.6" height="43.2" stroke="blue" stroke-width="0.1" width="96.0" x="528.0" y="219.6" /><rect fill="yellow" fill-opacity="0.6" height="36.0" stroke="yellow" stroke-width="0.1" width="32.0" x="-16.0" y="25.2" /><rect fill="yellow" fill-opacity="0.6" height="36.0" stroke="yellow" stroke-width="0.1" width="32.0" x="560.0" y="25.2" /><rect fill="yellow" fill-opacity="0.6" height="43.2" stroke="yellow" stroke-width="0.1" width="32.0" x="-16.0" y="61.2" /><rect fill="yellow" fill-opacity="0.6" height="43.2" stroke="yellow" stroke-width="0.1" width="32.0" x="560.0" y="61.2" /><rect fill="yellow" fill-opacity="0.6" height="36.0" stroke="yellow" stroke-width="0.1" width="32.0" x="-16.0" y="104.4" /><rect fill="yellow" fill-opacity="0.6" height="36.0" stroke="yellow" stroke-width="0.1" width="32.0" x="560.0" y="104.4" /><rect fill="yellow" fill-opacity="0.6" height="43.2" stroke="yellow" stroke-width="0.1" width="32.0" x="-16.0" y="140.4" /><rect fill="yellow" fill-opacity="0.6" height="43.2" stroke="yellow" stroke-width="0.1" width="32.0" x="560.0" y="140.4" /><rect fill="yellow" fill-opacity="0.6" height="36.0" stroke="yellow" stroke-width="0.1" width="32.0" x="-16.0" y="183.6" /><rect fill="yellow" fill-opacity="0.6" height="36.0" stroke="yellow" stroke-width="0.1" width="32.0" x="560.0" y="183.6" /><rect fill="yellow" fill-opacity="0.6" height="9.0" stroke="yellow" stroke-width="0.1" width="16.0" x="224.0" y="34.2" /><rect fill="yellow" fill-opacity="0.6" height="9.0" stroke="yellow" stroke-width="0.1" width="16.0" x="224.0" y="43.2" /><rect fill="yellow" fill-opacity="0.6" height="9.0" stroke="yellow" stroke-width="0.1" width="32.0" x="240.0" y="34.2" /><rect fill="yellow" fill-opacity="0.6" height="9.0" stroke="yellow" stroke-width="0.1" width="32.0" x="240.0" y="43.2" /><rect fill="yellow" fill-opacity="0.6" height="9.0" stroke="yellow" stroke-width="0.1" width="16.0" x="272.0" y="34.2" /><rect fill="yellow" fill-opacity="0.6" height="9.0" stroke="yellow" stroke-width="0.1" width="16.0" x="272.0" y="43.2" /><rect fill="yellow" fill-opacity="0.6" height="9.0" stroke="yellow" stroke-width="0.1" width="16.0" x="224.0" y="113.4" /><rect fill="yellow" fill-opacity="0.6" height="9.0" stroke="yellow" stroke-width="0.1" width="16.0" x="224.0" y="122.4" /><rect fill="yellow" fill-opacity="0.6" height="9.0" stroke="yellow" stroke-width="0.1" width="32.0" x="240.0" y="113.4" /><rect fill="yellow" fill-opacity="0.6" height="9.0" stroke="yellow" stroke-width="0.1" width="32.0" x="240.0" y="122.4" /><rect fill="yellow" fill-opacity="0.6" height="9.0" stroke="yellow" stroke-width="0.1" width="16.0" x="272.0" y="113.4" /><rect fill="yellow" fill-opacity="0.6" height="9.0" stroke="yellow" stroke-width="0.1" width="16.0" x="272.0" y="122.4" /><rect fill="yellow" fill-opacity="0.6" height="9.0" stroke="yellow" stroke-width="0.1" width="16.0" x="224.0" y="192.6" /><rect fill="yellow" fill-opacity="0.6" height="9.0" stroke="yellow" stroke-width="0.1" width="16.0" x="224.0" y="201.6" /><rect fill="yellow" fill-opacity="0.6" height="9.0" stroke="yellow" stroke-width="0.1" width="32.0" x="240.0" y="192.6" /><rect fill="yellow" fill-opacity="0.6" height="9.0" stroke="yellow" stroke-width="0.1" width="32.0" x="240.0" y="201.6" /><rect fill="yellow" fill-opacity="0.6" height="9.0" stroke="yellow" stroke-width="0.1" width="16.0" x="272.0" y="192.6" /><rect fill="yellow" fill-opacity="0.6" height="9.0" stroke="yellow" stroke-width="0.1" width="16.0" x="272.0" y="201.6" /></g></g></svg>